<?xml version="1.0" encoding="utf-8"?><svg xmlns="http://www.w3.org/2000/svg" xmlns:xlink="http://www.w3.org/1999/xlink"><symbol viewBox="0 0 23 24" id="cart" xmlns="http://www.w3.org/2000/svg"><path fill-rule="evenodd" clip-rule="evenodd" d="M2.56 2.138H.104v-2H2.56a3 3 0 0 1 3 3V4.62h14.268a3 3 0 0 1 3 3v3.193a3 3 0 0 1-2.28 2.912L7.974 16.84a3.622 3.622 0 0 1-1.145 7.056 3.62 3.62 0 0 1-1.33-6.99A2.998 2.998 0 0 1 3.56 14.1V3.138a1 1 0 0 0-1-1Zm3 4.483V14.1a1 1 0 0 0 1.24.97l13.268-3.285a1 1 0 0 0 .76-.97V7.62a1 1 0 0 0-1-1H5.56Zm1.268 15.275a1.62 1.62 0 1 0 0-3.24 1.62 1.62 0 0 0 0 3.24Zm14.034-1.62a1.62 1.62 0 1 1-3.241 0 1.62 1.62 0 0 1 3.241 0Zm2 0a3.62 3.62 0 1 1-7.241 0 3.62 3.62 0 0 1 7.241 0Z"/></symbol><symbol fill="none" viewBox="0 0 177 61" id="logo" xmlns="http://www.w3.org/2000/svg"><g clip-path="url(#ba)"><path d="M26.725 0h126.934C166.543 0 177 10.428 177 23.276V56.39a3.658 3.658 0 0 1-3.66 3.65H26.725C11.975 60.035 0 48.094 0 33.386V26.65C0 11.94 11.975 0 26.725 0Z" fill="#FFA333"/><path d="M32.944 16.924h5.816v9.203h4.515V13.586H28.429v12.541h4.515v-9.203ZM57.158 26.127h4.425V13.586h-5.774l-5.617 8.357v-8.357h-4.449v12.541h5.617l5.798-8.62v8.62ZM72.444 26.127v-9.161h4.78v-3.38H63.148v3.38h4.78v9.161h4.516ZM80.824 25.659c.933.546 2.017.822 3.251.822s2.252-.276 3.185-.822c.855-.505 1.571-1.207 2.155-2.09l.325 2.558h4.672l-.795-6.286.795-6.261H89.74l-.319 2.521c-.59-.87-1.306-1.573-2.161-2.071-.933-.546-1.993-.822-3.185-.822s-2.318.276-3.251.834c-.933.558-1.662 1.333-2.191 2.33-.53.996-.795 2.16-.795 3.493 0 1.333.265 2.456.795 3.458.53 1.003 1.258 1.777 2.191 2.33v.006Zm1.963-7.457a2.91 2.91 0 0 1 1.065-1.14c.452-.276.976-.42 1.566-.42.59 0 1.198.138 1.74.42a4.66 4.66 0 0 1 1.432 1.14c.41.487.717 1.039.927 1.67a4.83 4.83 0 0 1-.927 1.644c-.409.487-.89.859-1.433 1.135a3.784 3.784 0 0 1-1.74.408c-.614 0-1.107-.132-1.565-.408a2.772 2.772 0 0 1-1.065-1.135c-.26-.486-.386-1.032-.386-1.645 0-.612.127-1.188.386-1.669ZM101.065 21.384h5.948v4.743h4.491V13.586h-4.491v4.46h-5.948v-4.46h-4.498v12.541h4.498v-4.742ZM125.387 26.127h4.425V13.586h-5.773l-5.617 8.357v-8.357h-4.449v12.541h5.617l5.797-8.62v8.62ZM143.262 26.007c1.108-.312 2.095-.762 2.962-1.35v-2.858a9.86 9.86 0 0 1-2.499 1.02c-.915.24-1.842.36-2.763.36-1.011 0-1.866-.144-2.565-.438-.698-.294-1.228-.714-1.589-1.26-.072-.109-.126-.223-.187-.343h9.934c0-1.609-.289-3.008-.873-4.196-.578-1.189-1.403-2.107-2.468-2.756-1.066-.654-2.354-.979-3.865-.979-1.512 0-2.758.277-3.914.835-1.15.558-2.059 1.327-2.721 2.317-.662.99-.993 2.138-.993 3.44 0 1.303.343 2.504 1.035 3.506.693 1.003 1.632 1.784 2.83 2.342 1.198.558 2.558.834 4.088.834 1.276 0 2.474-.156 3.582-.474h.006Zm-5.497-9.24c.47-.264 1.036-.396 1.698-.396.602 0 1.12.12 1.553.355.434.234.783.576 1.048 1.02.12.21.223.438.301.69h-5.942c.06-.203.138-.402.246-.582a2.862 2.862 0 0 1 1.102-1.086h-.006ZM38.302 33.163h-3.865v5.361h-5.382v3.855h5.382v5.36h3.865v-5.36h5.376v-3.855h-5.376v-5.36ZM52.366 46.431h4.515v-9.21h5.816v9.21h4.515V33.884H52.366V46.43ZM81.39 34.346c-1.21-.559-2.619-.835-4.22-.835-1.602 0-3.029.276-4.233.835-1.204.558-2.143 1.333-2.817 2.33-.675.996-1.012 2.16-1.012 3.493 0 1.333.337 2.456 1.012 3.458.674 1.003 1.613 1.777 2.817 2.33 1.204.546 2.613.822 4.233.822 1.62 0 3.01-.276 4.22-.823 1.21-.552 2.155-1.326 2.83-2.329.674-1.002 1.011-2.155 1.011-3.458 0-1.303-.337-2.497-1.011-3.494-.675-.996-1.62-1.771-2.83-2.33Zm-1.132 7.582c-.277.498-.68.877-1.204 1.14-.524.265-1.15.397-1.884.397-.735 0-1.367-.132-1.897-.396a2.745 2.745 0 0 1-1.21-1.14c-.277-.5-.421-1.093-.421-1.778 0-.684.138-1.279.421-1.77.277-.493.68-.871 1.21-1.136.53-.264 1.162-.396 1.897-.396.734 0 1.36.132 1.884.396.524.265.921.643 1.204 1.135.277.492.422 1.087.422 1.79 0 .701-.139 1.26-.422 1.758ZM89.235 36.772c.054.87.078 1.65.078 2.34 0 1.436-.145 2.468-.44 3.099-.295.63-.8.942-1.523.942a3.35 3.35 0 0 1-.692-.078 4.425 4.425 0 0 1-.783-.228v3.188c.428.234.861.402 1.3.504.44.102.91.156 1.41.156 1.691 0 2.913-.546 3.666-1.639.758-1.092 1.138-2.87 1.138-5.325 0-.558-.024-1.189-.066-1.89-.013-.193-.03-.41-.049-.613h4.847v9.203h4.515V33.884h-13.66c.12 1.056.204 2.017.253 2.888h.006ZM116.321 37.738c-.825-.39-1.795-.582-2.908-.582h-3.811v-3.272h-4.498V46.43h8.375c1.084 0 2.035-.192 2.854-.57.812-.378 1.456-.919 1.914-1.615.458-.697.692-1.513.692-2.45 0-.936-.228-1.729-.692-2.425-.464-.696-1.108-1.237-1.926-1.627v-.006Zm-2.354 5.139c-.308.27-.741.408-1.301.408h-3.064v-3.097h3.064c.56 0 .993.138 1.301.408.307.27.463.648.463 1.134 0 .487-.156.883-.463 1.153v-.006ZM132.913 40.475c-.452-.228-1-.39-1.638-.492.205-.048.403-.102.578-.168.777-.276 1.343-.654 1.686-1.135.343-.474.517-.984.517-1.524 0-.703-.283-1.327-.848-1.88-.566-.552-1.355-.978-2.366-1.296-1.012-.313-2.198-.475-3.546-.475-1.53 0-2.83.204-3.902.613-1.071.408-1.896.96-2.48 1.65-.584.691-.891 1.453-.933 2.288h4.316c.073-.498.356-.877.849-1.135.494-.258 1.15-.384 1.969-.384.746 0 1.336.108 1.764.318.427.21.638.517.638.913 0 .354-.193.63-.572.834-.379.205-.969.306-1.764.306h-2.161v2.414h2.227c.897 0 1.548.09 1.963.264.409.174.614.462.614.859 0 .438-.235.768-.704.99-.47.216-1.138.33-2.005.33s-1.608-.138-2.125-.42c-.524-.276-.825-.678-.915-1.207h-4.341c.042.955.373 1.778.993 2.474.62.696 1.475 1.23 2.565 1.603 1.096.372 2.366.558 3.823.558 1.541 0 2.854-.174 3.931-.528 1.078-.354 1.903-.829 2.469-1.441.566-.606.848-1.29.848-2.053 0-1.039-.487-1.801-1.456-2.288l.006.012ZM152.34 33.883h-4.672l-.319 2.522c-.59-.87-1.306-1.573-2.161-2.071-.933-.547-1.993-.823-3.185-.823s-2.318.276-3.251.835c-.933.558-1.661 1.333-2.191 2.33-.53.996-.795 2.16-.795 3.493 0 1.333.265 2.456.795 3.458.53 1.003 1.258 1.777 2.191 2.33.933.546 2.017.822 3.251.822s2.252-.276 3.185-.823c.855-.504 1.571-1.206 2.155-2.089l.325 2.558h4.672l-.794-6.286.794-6.262v.006Zm-7.248 9.066a3.862 3.862 0 0 1-1.74.408c-.614 0-1.108-.132-1.565-.408a2.772 2.772 0 0 1-1.066-1.135c-.259-.486-.385-1.032-.385-1.645 0-.612.126-1.189.385-1.669a2.91 2.91 0 0 1 1.066-1.14c.451-.277.975-.42 1.565-.42s1.198.137 1.74.42c.542.276 1.023.66 1.433 1.14.409.486.716 1.039.927 1.67a4.842 4.842 0 0 1-.927 1.644c-.41.486-.891.859-1.433 1.135Z" fill="#fff"/></g><defs><clipPath id="ba"><path fill="#fff" d="M0 0h177v60.035H0z"/></clipPath></defs></symbol><symbol viewBox="0 0 24 24" id="phone" xmlns="http://www.w3.org/2000/svg"><path fill-rule="evenodd" clip-rule="evenodd" d="m14.419 10.188 1.599-1.491-.051-.046-.668-.526c-.37-.291-.515-.533-.57-.706-.047-.151-.08-.419.124-.886.44-1.008.922-2.257 1.247-3.165l-2.173-.649c-.314.879-.779 2.085-1.197 3.04-.73 1.67-.155 2.975 1.076 3.946l.613.483Zm.004.01v-.004l-.004-.006c1.599-1.491 1.6-1.49 1.6-1.49l.003.002.004.003.007.007.015.014a2.067 2.067 0 0 1 .257.284c.104.138.25.368.335.682a1.921 1.921 0 0 1-.085 1.26c-.78 1.855-2.078 4.613-5.853 6.184l-1.45.604L7.9 16.492c-.449-.414-1.152-.532-1.87-.125l-2.77 1.785c-.47.302-.795.724-.919 1.128-.12.39-.052.74.21 1.032a4.576 4.576 0 0 0 2.394 1.42c1.549.372 3.181.14 4.78-.433 1.599-.573 3.089-1.462 4.298-2.307 1.787-1.247 5.558-4.22 7.346-9.768.672-2.085.273-3.746-.446-4.931-.747-1.231-1.808-1.908-2.377-2.067-.733-.205-1.217-.16-1.534-.02-.306.134-.656.444-.913 1.162l-2.173-.649c.387-1.08 1.067-1.942 2.096-2.394 1.009-.443 2.13-.391 3.192-.095 1.251.35 2.739 1.453 3.709 3.052 1.004 1.655 1.49 3.891.639 6.53-1.982 6.15-6.178 9.46-8.15 10.838-1.296.905-2.978 1.92-4.851 2.592-1.874.672-4.023 1.03-6.196.51a6.888 6.888 0 0 1-3.585-2.12c-.797-.89-.931-1.965-.64-2.914.282-.92.954-1.725 1.802-2.271l2.815-1.814c1.558-.919 3.486-.79 4.767.391l.23.211c2.916-1.214 3.934-3.292 4.668-5.037Z"/></symbol><symbol viewBox="0 0 24 23" id="user" xmlns="http://www.w3.org/2000/svg"><path fill-rule="evenodd" clip-rule="evenodd" d="M16.655 6.862a4.655 4.655 0 1 1-9.31 0 4.655 4.655 0 0 1 9.31 0Zm2.07 0a6.724 6.724 0 1 1-13.45 0 6.724 6.724 0 0 1 13.45 0ZM4.24 15.655a4.138 4.138 0 0 0-4.137 4.138v3.104h2.068v-3.104c0-1.142.927-2.069 2.07-2.069h15.517a2.07 2.07 0 0 1 2.069 2.07v3.103h2.069v-3.104a4.138 4.138 0 0 0-4.138-4.138H4.24Z"/></symbol></svg>